<?xml version="1.0" encoding="UTF-8"?>
<svg id="Layer_2" data-name="Layer 2" xmlns="http://www.w3.org/2000/svg" viewBox="0 0 77.64 23.84">
  <defs>
    <style>
      .cls-1 {
        fill: #b6cdff;
      }
    </style>
  </defs>
  <g id="Layer_2-2" data-name="Layer 2">
    <g id="Layer_1-2" data-name="Layer 1-2">
      <g>
        <polygon class="cls-1" points="77.64 4.95 77.64 4.03 73.74 5.38 73.74 6.45 77.64 7.79 77.64 6.88 74.68 5.93 74.68 5.9 77.64 4.95"/>
        <polygon class="cls-1" points="69.72 5.38 65.82 4.03 65.82 4.95 68.79 5.89 68.79 5.93 65.82 6.87 65.82 7.79 69.72 6.44 69.72 5.38"/>
        <polygon class="cls-1" points="71.2 7.92 69.85 11.82 70.77 11.82 71.71 8.86 71.75 8.86 72.69 11.82 73.61 11.82 72.26 7.92 71.2 7.92"/>
        <polygon class="cls-1" points="72.27 3.9 73.61 0 72.7 0 71.75 2.97 71.72 2.97 70.77 0 69.85 0 71.2 3.9 72.27 3.9"/>
        <polygon class="cls-1" points="73.53 4.87 77.24 3.06 76.6 2.41 73.83 3.84 73.8 3.82 75.24 1.05 74.59 .4 72.78 4.12 73.53 4.87"/>
        <polygon class="cls-1" points="69.94 6.95 66.22 8.76 66.87 9.41 69.64 7.98 69.66 8.01 68.23 10.77 68.88 11.42 70.69 7.71 69.94 6.95"/>
        <polygon class="cls-1" points="72.77 7.71 74.58 11.42 75.23 10.77 73.8 8.01 73.83 7.98 76.59 9.41 77.24 8.76 73.53 6.96 72.77 7.71"/>
        <polygon class="cls-1" points="70.69 4.11 68.88 .4 68.23 1.05 69.66 3.81 69.64 3.84 66.87 2.41 66.22 3.06 69.94 4.87 70.69 4.11"/>
        <g>
          <path d="M2.8,5.35v2.66h.07c1.35-2.05,3.3-3.08,5.85-3.08,1.12,0,2.14.23,3.05.7s1.55,1.26,1.93,2.38c.61-.98,1.41-1.74,2.4-2.28.99-.54,2.08-.81,3.27-.81.91,0,1.73.1,2.47.3.74.2,1.37.51,1.89.93.53.42.93.96,1.23,1.63.29.67.44,1.47.44,2.4v13.27h-2.98v-11.87c0-.56-.05-1.09-.14-1.58s-.27-.92-.53-1.28-.61-.65-1.07-.86c-.46-.21-1.04-.32-1.77-.32-1.47,0-2.63.42-3.47,1.26-.84.84-1.26,1.96-1.26,3.36v11.27h-2.98v-11.87c0-.58-.05-1.12-.16-1.61s-.29-.92-.54-1.28c-.26-.36-.6-.64-1.03-.84-.43-.2-.99-.3-1.66-.3-.86,0-1.61.18-2.22.53-.62.35-1.12.77-1.51,1.26-.39.49-.67,1-.84,1.52s-.26.96-.26,1.31v11.27H0V5.35h2.8Z"/>
          <path d="M44.87,23.38c-.51.3-1.23.46-2.14.46-.77,0-1.38-.22-1.84-.65s-.68-1.14-.68-2.12c-.82.98-1.77,1.69-2.85,2.12s-2.26.65-3.52.65c-.82,0-1.59-.09-2.33-.28s-1.37-.48-1.91-.88c-.54-.4-.96-.92-1.28-1.56-.32-.64-.47-1.42-.47-2.33,0-1.03.18-1.87.53-2.52s.81-1.18,1.38-1.59,1.23-.72,1.96-.93c.74-.21,1.49-.39,2.26-.53.82-.16,1.59-.29,2.33-.37.74-.08,1.38-.2,1.94-.35.56-.15,1-.37,1.33-.67.33-.29.49-.72.49-1.28,0-.65-.12-1.18-.37-1.58s-.56-.7-.95-.91-.82-.35-1.3-.42-.95-.11-1.42-.11c-1.26,0-2.31.24-3.15.72-.84.48-1.3,1.38-1.37,2.71h-2.98c.05-1.12.28-2.07.7-2.84s.98-1.39,1.68-1.87,1.5-.82,2.4-1.03c.9-.21,1.86-.32,2.89-.32.82,0,1.63.06,2.43.18.81.12,1.53.35,2.19.72.65.36,1.18.87,1.58,1.52s.6,1.5.6,2.55v9.29c0,.7.04,1.21.12,1.54.08.33.36.49.82.49.26,0,.56-.05.91-.14v2.31l.02.02ZM40.04,14.1c-.37.28-.86.48-1.47.61s-1.24.23-1.91.31c-.67.08-1.34.17-2.01.28-.68.1-1.28.27-1.82.5-.54.23-.97.56-1.31.99s-.51,1.02-.51,1.76c0,.49.1.9.3,1.24.2.34.46.61.77.82.32.21.68.36,1.1.45s.86.14,1.33.14c.98,0,1.82-.13,2.52-.4s1.27-.6,1.72-1.01c.44-.41.77-.85.98-1.32.21-.48.32-.92.32-1.34v-3.03h-.01Z"/>
          <path d="M46.15,5.35h3.82l4.34,6.34,4.52-6.34h3.57l-6.23,8.33,7,9.77h-3.82l-5.04-7.49-5.04,7.49h-3.61l6.79-9.52s-6.3-8.58-6.3-8.58Z"/>
        </g>
      </g>
    </g>
  </g>
</svg>