<?xml version="1.0" encoding="UTF-8"?>
<svg id="Layer_2" data-name="Layer 2" xmlns="http://www.w3.org/2000/svg" viewBox="0 0 130.79 24">
  <g id="Layer_1-2" data-name="Layer 1">
    <g>
      <path d="M55.14,11.29c-.2-1.22-.61-2.28-1.21-3.19-.63-.96-1.54-1.74-2.74-2.34h0c-1.2-.6-2.43-.91-3.71-.91-2.53,0-4.58.91-6.15,2.72-1.57,1.81-2.35,4.13-2.35,7.08s.78,5.25,2.33,6.89c1.56,1.64,3.45,2.46,5.69,2.46.92,0,1.74-.09,2.47-.27,1.35-.32,2.49-.92,3.4-1.83.55-.52,1.04-1.19,1.49-2s.71-1.56.79-2.22h-2.99c-.22.8-.59,1.51-1.12,2.12-.94,1.05-2.2,1.58-3.77,1.58-1.69,0-2.93-.56-3.74-1.67-.81-1.11-1.24-2.59-1.29-4.43h13.17c0-1.83-.09-3.15-.27-3.99h0ZM52.28,12.86h-9.97c.06-1.55.55-2.84,1.49-3.84.94-1.01,2.1-1.51,3.49-1.51,1.93,0,3.31.73,4.14,2.2.45.79.73,1.84.85,3.16h0Z"/>
      <polygon points="68.83 5.26 63.79 20 58.96 5.26 58.96 5.26 55.43 5.26 62.1 23.36 65.35 23.36 72.16 5.26 68.83 5.26"/>
      <path d="M87.75,11.29c-.2-1.22-.61-2.28-1.21-3.19-.63-.96-1.54-1.74-2.74-2.34h0c-1.2-.6-2.43-.91-3.71-.91-2.53,0-4.58.91-6.15,2.72-1.57,1.81-2.35,4.13-2.35,7.08s.78,5.25,2.33,6.89,3.45,2.46,5.69,2.46c.92,0,1.74-.09,2.47-.27,1.35-.32,2.49-.92,3.4-1.83.55-.52,1.04-1.19,1.49-2s.71-1.56.79-2.22h-2.99c-.22.8-.59,1.51-1.12,2.12-.94,1.05-2.2,1.58-3.77,1.58-1.69,0-2.93-.56-3.74-1.67-.81-1.11-1.24-2.59-1.29-4.43h13.17c0-1.83-.09-3.15-.27-3.99h0ZM84.9,12.86h-9.97c.06-1.55.55-2.84,1.49-3.84s2.1-1.51,3.49-1.51c1.93,0,3.31.73,4.14,2.2.45.79.73,1.84.85,3.16h0Z"/>
      <path d="M99.5,4.85c-1.17,0-2.24.23-3.19.69s-1.87,1.22-2.72,2.28v-2.57h-2.89v18.1h3.04v-9.48c0-1.18.08-2.09.23-2.73.15-.64.48-1.25.99-1.85.63-.74,1.36-1.24,2.2-1.49.46-.15,1.05-.22,1.77-.22,1.42,0,2.4.56,2.94,1.69.33.68.49,1.57.49,2.67v11.41h3.09v-11.61c0-1.83-.25-3.23-.74-4.21-.9-1.79-2.64-2.69-5.21-2.69h0Z"/>
      <path d="M112.62.2h-3.08v5.05h-2.45v2.48h2.45v11.98c0,1.16.25,2.11.76,2.83s1.47,1.09,2.89,1.09c.44,0,.85-.02,1.23-.07.38-.05.74-.12,1.09-.22v-2.42c-.22.03-.42.05-.59.06-.17,0-.33.01-.47.01-.55,0-.95-.06-1.18-.19-.43-.21-.64-.64-.64-1.27V7.74h2.89v-2.48h-2.89V.2h0Z"/>
      <polygon points="13.17 4.94 9.25 18.53 5.41 4.94 0 4.94 0 4.94 6.61 23.36 11.7 23.36 18.34 4.94 13.17 4.94"/>
      <path d="M27.03,4.34c-3.17,0-5.53.98-7.08,2.92-1.56,1.95-2.33,4.21-2.33,6.91s.78,5.02,2.33,6.94,3.92,2.88,7.08,2.88,5.53-.96,7.08-2.88c1.56-1.92,2.33-4.28,2.33-6.94s-.78-4.96-2.33-6.91c-1.55-1.95-3.92-2.92-7.08-2.92ZM30.25,18.46c-.76,1-1.84,1.5-3.25,1.5s-2.49-.5-3.25-1.5-1.14-2.43-1.14-4.28.38-3.27,1.14-4.27,1.84-1.5,3.25-1.5,2.49.5,3.25,1.5c.75,1,1.13,2.42,1.13,4.27s-.38,3.27-1.13,4.28Z"/>
      <polygon points="130.79 4.94 130.79 4.02 126.9 5.37 126.9 6.43 130.79 7.77 130.79 6.86 127.83 5.92 127.83 5.88 130.79 4.94"/>
      <polygon points="122.89 5.36 119 4.02 119 4.93 121.96 5.87 121.96 5.91 119 6.85 119 7.77 122.89 6.42 122.89 5.36"/>
      <polygon points="124.36 7.9 123.02 11.79 123.93 11.79 124.87 8.83 124.91 8.83 125.85 11.79 126.77 11.79 125.42 7.9 124.36 7.9"/>
      <polygon points="125.43 3.89 126.77 0 125.86 0 124.91 2.96 124.88 2.96 123.94 0 123.02 0 124.36 3.89 125.43 3.89"/>
      <polygon points="126.69 4.86 130.39 3.05 129.74 2.41 126.99 3.83 126.96 3.81 128.39 1.05 127.74 .4 125.94 4.11 126.69 4.86"/>
      <polygon points="123.1 6.93 119.4 8.74 120.05 9.38 122.8 7.96 122.83 7.98 121.4 10.74 122.05 11.39 123.85 7.68 123.1 6.93"/>
      <polygon points="125.93 7.69 127.74 11.39 128.38 10.74 126.96 7.99 126.98 7.96 129.74 9.39 130.39 8.74 126.68 6.94 125.93 7.69"/>
      <polygon points="123.86 4.1 122.05 .4 121.41 1.05 122.83 3.8 122.81 3.83 120.05 2.4 119.4 3.05 123.1 4.85 123.86 4.1"/>
    </g>
  </g>
</svg>