<?xml version="1.0" encoding="UTF-8"?>
<svg id="Layer_2" data-name="Layer 2" xmlns="http://www.w3.org/2000/svg" viewBox="0 0 85.89 17.9">
  <defs>
    <style>
      .cls-1 {
        fill: #6794d5;
      }
    </style>
  </defs>
  <g id="Layer_1-2" data-name="Layer 1">
    <g>
      <path d="M5.83,17.47L0,.47h4.89l3.59,11.61h.06L12.12.47h4.63l-5.75,17h-5.17ZM22.07,10.98c.13.64.35,1.23.67,1.74s.74.92,1.27,1.23,1.18.47,1.97.47,1.45-.16,1.99-.47.96-.72,1.29-1.23c.32-.51.54-1.1.67-1.74.13-.64.19-1.31.19-1.99s-.06-1.34-.19-2c-.13-.66-.37-1.24-.67-1.74-.32-.5-.74-.92-1.29-1.23-.54-.32-1.2-.48-1.99-.48s-1.45.16-1.97.48c-.53.32-.95.73-1.27,1.23-.32.5-.54,1.08-.67,1.74s-.2,1.33-.2,2c.01.67.07,1.34.2,1.99M17.83,5.29c.41-1.11,1.01-2.04,1.77-2.83.77-.77,1.69-1.39,2.76-1.81,1.08-.42,2.28-.64,3.62-.64s2.54.22,3.64.64c1.08.42,2.02,1.04,2.77,1.81.77.77,1.36,1.72,1.78,2.83.41,1.11.63,2.34.63,3.69s-.2,2.58-.63,3.68c-.42,1.1-1.01,2.03-1.78,2.82-.77.77-1.69,1.37-2.77,1.8-1.08.41-2.29.63-3.64.63s-2.54-.2-3.62-.63c-1.07-.41-2-1.01-2.76-1.8-.77-.77-1.36-1.71-1.77-2.82-.42-1.1-.63-2.32-.63-3.68s.2-2.58.63-3.69M62.31,4.45c-.55-.61-1.4-.92-2.54-.92-.74,0-1.36.13-1.85.38s-.89.57-1.18.93-.51.77-.63,1.18c-.12.41-.19.79-.22,1.11h7.59c-.22-1.17-.6-2.07-1.17-2.69M57.04,13.39c.7.69,1.71,1.02,3.02,1.02.95,0,1.75-.23,2.44-.7.69-.47,1.1-.96,1.26-1.49h4.1c-.66,2.04-1.66,3.49-3.02,4.37s-3.01,1.31-4.94,1.31c-1.34,0-2.54-.22-3.62-.64-1.07-.42-1.99-1.04-2.73-1.83s-1.33-1.72-1.72-2.83c-.41-1.1-.61-2.31-.61-3.62s.2-2.45.63-3.55c.41-1.1,1.01-2.04,1.78-2.85.77-.8,1.68-1.43,2.75-1.88,1.07-.45,2.23-.69,3.53-.69,1.45,0,2.7.28,3.78.83,1.07.55,1.96,1.31,2.64,2.25.69.95,1.18,2.02,1.49,3.23.31,1.21.41,2.47.32,3.78h-12.27c.09,1.52.47,2.61,1.17,3.29M81.43,17.47v-2.37h-.1c-.6.98-1.36,1.69-2.31,2.13s-1.9.66-2.89.66c-1.26,0-2.28-.16-3.08-.5-.8-.32-1.43-.79-1.88-1.4-.45-.6-.79-1.34-.96-2.21-.19-.86-.28-1.83-.28-2.88V.45h4.67v9.59c0,1.4.22,2.45.66,3.14s1.21,1.04,2.34,1.04c1.27,0,2.19-.38,2.76-1.14.57-.76.86-2,.86-3.74V.44h4.67v17h-4.45v.03Z"/>
      <path class="cls-1" d="M45.36,10.51c3.05-4.83,4.44-9.43,3.1-10.28-1.33-.85-4.89,2.4-7.93,7.23-3.05,4.83-4.44,9.43-3.1,10.28,1.34.85,4.88-2.4,7.93-7.23"/>
    </g>
  </g>
</svg>