<?xml version="1.0" encoding="UTF-8"?>
<svg id="Layer_2" data-name="Layer 2" xmlns="http://www.w3.org/2000/svg" viewBox="0 0 63.44 20">
  <g id="Layer_1-2" data-name="Layer 1">
    <g>
      <path d="M0,16.9l2.05-2.44c1.86,1.61,3.71,2.52,6.12,2.52,2.11,0,3.44-.97,3.44-2.44v-.06c0-1.38-.78-2.13-4.38-2.96C3.1,10.53.78,9.31.78,5.73v-.06C.78,2.35,3.55.05,7.4.05c2.82,0,5.07.86,7.04,2.44l-1.83,2.58c-1.75-1.3-3.49-1.99-5.26-1.99-1.99,0-3.16,1.03-3.16,2.3v.05c0,1.5.89,2.16,4.6,3.05,4.1,1,6.23,2.47,6.23,5.68v.06c0,3.63-2.85,5.79-6.93,5.79-2.96,0-5.76-1.03-8.09-3.1"/>
      <polygon points="18.5 .22 18.5 16.92 21.53 19.94 21.53 .22 18.5 .22"/>
      <path d="M25.27,9.97c0-5.63,4.45-9.97,9.97-9.97,2.77,0,5.33.96,7.11,2.83l-2.06,2.25c-1.21-1.29-3.13-2.06-5.05-2.06-3.85,0-6.73,3.05-6.73,6.95s2.88,6.95,6.73,6.95c1.43,0,2.88-.36,3.98-1.04v-4.51h-5.36l1.4-3.08h7.14v9.15c-1.81,1.57-4.42,2.5-7.17,2.5-5.52,0-9.97-4.34-9.97-9.97"/>
      <polygon points="46.93 0 46.93 19.72 50.12 19.72 50.12 7.28 63.44 19.94 63.44 .22 60.25 .22 60.25 12.66 46.93 0"/>
    </g>
  </g>
</svg>