<?xml version="1.0" encoding="UTF-8"?>
<svg id="Layer_2" data-name="Layer 2" xmlns="http://www.w3.org/2000/svg" viewBox="0 0 124.83 124.83">
  <g id="Calque_3" data-name="Calque 3">
    <circle cx="62.41" cy="62.41" r="7.8"/>
    <path d="M62.41,79.58c-1.63,0-3.19-.24-4.68-.66v45.91h9.36v-45.91c-1.49.42-3.06.66-4.68.66Z"/>
    <path d="M62.41,45.25c1.63,0,3.19.24,4.68.66V0s-9.36,0-9.36,0v45.91c1.49-.42,3.06-.66,4.68-.66Z"/>
    <path d="M45.25,62.41c0-1.63.24-3.19.66-4.68H0s0,9.36,0,9.36h45.91c-.42-1.49-.66-3.06-.66-4.68Z"/>
    <path d="M79.58,62.41c0,1.63-.24,3.19-.66,4.68h45.91s0-9.36,0-9.36h-45.91c.42,1.49.66,3.06.66,4.68Z"/>
    <path d="M74.55,74.55c-1.15,1.15-2.43,2.09-3.78,2.84l32.47,32.47,6.62-6.62-32.47-32.47c-.76,1.35-1.69,2.63-2.84,3.78Z"/>
    <path d="M50.28,50.28c1.15-1.15,2.43-2.09,3.78-2.84L21.59,14.97l-6.62,6.62,32.47,32.47c.76-1.35,1.69-2.63,2.84-3.78Z"/>
    <path d="M50.28,74.55c-1.15-1.15-2.09-2.43-2.84-3.78L14.97,103.24l6.62,6.62,32.47-32.47c-1.35-.76-2.63-1.69-3.78-2.84Z"/>
    <path d="M74.55,50.28c1.15,1.15,2.09,2.43,2.84,3.78l32.47-32.47-6.62-6.62-32.47,32.47c1.35.76,2.63,1.69,3.78,2.84Z"/>
  </g>
</svg>