<?xml version="1.0" encoding="UTF-8"?>
<svg id="Layer_2" data-name="Layer 2" xmlns="http://www.w3.org/2000/svg" viewBox="0 0 186.1 24">
  <g id="Layer_1-2" data-name="Layer 1">
    <g>
      <polygon points="6.7 1.55 3.58 1.55 3.58 6.51 0 6.51 0 9.2 3.58 9.2 3.58 23.56 6.7 23.56 6.7 9.2 10.24 9.2 10.24 6.51 6.7 6.51 6.7 1.55"/>
      <polygon points="77.98 1.55 74.86 1.55 74.86 6.51 72.63 6.51 71.28 6.51 69.09 6.51 69.09 1.55 65.97 1.55 65.97 6.51 62.39 6.51 62.39 9.2 65.97 9.2 65.97 23.56 69.09 23.56 69.09 9.2 71.28 9.2 72.63 9.2 74.86 9.2 74.86 23.56 77.98 23.56 77.98 9.2 81.52 9.2 81.52 6.51 77.98 6.51 77.98 1.55"/>
      <path d="M20.14,6.11c-2.49,0-4.54.9-5.96,2.61V0h-3.08v23.56h3.08v-8.21c0-3.98,2.04-6.36,5.46-6.36,2.58,0,4.32,1.96,4.32,4.89v9.68h3.08v-10.15c0-4.37-2.77-7.3-6.9-7.3Z"/>
      <path d="M36.89,6.11c-5.02,0-8.81,3.86-8.81,8.98,0,5.79,4.45,8.91,8.64,8.91,3.93,0,6.83-1.93,8.16-5.43l.11-.29-2.79-.66-.09.2c-1,2.25-2.81,3.39-5.38,3.39s-5.25-1.89-5.6-5.39h14.15v-1.22c-.17-4.93-3.69-8.5-8.37-8.5ZM31.25,13.38c.61-2.95,3.26-4.49,5.64-4.49,2.68,0,4.69,1.75,5.21,4.49h-10.85Z"/>
      <rect x="52.65" width="3.08" height="23.56"/>
      <rect x="57.94" y="6.51" width="3.12" height="17.05"/>
      <rect x="82.69" width="3.08" height="23.56"/>
      <path d="M96.06,6.11c-5.02,0-8.81,3.86-8.81,8.98,0,5.79,4.45,8.91,8.64,8.91,3.93,0,6.83-1.93,8.16-5.43l.11-.29-2.79-.66-.09.2c-1,2.25-2.81,3.39-5.38,3.39s-5.25-1.89-5.6-5.39h14.15v-1.22c-.17-4.93-3.69-8.5-8.37-8.5ZM90.42,13.38c.61-2.95,3.26-4.49,5.64-4.49,2.68,0,4.69,1.75,5.21,4.49h-10.85Z"/>
      <polygon points="123.12 6.51 116.96 19.16 110.76 6.51 107.38 6.51 115.68 23.41 115.75 23.56 118.13 23.56 126.5 6.51 123.12 6.51"/>
      <rect x="146.41" y="6.51" width="3.12" height="17.05"/>
      <path d="M159.74,8.96c2.66,0,4.68,1.48,5.4,3.96l.08.26,2.96-.89-.08-.26c-1.07-3.54-4.43-5.92-8.36-5.92-5.16,0-9.04,3.83-9.04,8.91s3.89,8.94,9.04,8.94c4.01,0,7.37-2.42,8.37-6.03l.07-.26-2.85-.77-.08.24c-.82,2.46-2.88,3.94-5.51,3.94-3.49,0-6.03-2.55-6.03-6.06s2.53-6.06,6.03-6.06Z"/>
      <path d="M186.1,14.61c-.17-4.93-3.69-8.5-8.37-8.5-5.02,0-8.81,3.86-8.81,8.98,0,5.79,4.45,8.91,8.64,8.91,3.93,0,6.83-1.93,8.16-5.43l.11-.29-2.79-.66-.09.2c-1,2.25-2.81,3.39-5.38,3.39s-5.25-1.89-5.6-5.39h14.15v-1.22ZM172.08,13.38c.61-2.95,3.26-4.49,5.64-4.49,2.68,0,4.69,1.75,5.21,4.49h-10.85Z"/>
      <path d="M125,15.04c0,4.94,4,8.94,8.94,8.94v-2.91c-3.33,0-6.04-2.71-6.04-6.04s2.71-6.04,6.04-6.04v-2.91c-4.94,0-8.94,4-8.94,8.94Z"/>
      <path d="M136.27,6.1v2.91c3.33,0,6.04,2.71,6.04,6.04s-2.71,6.04-6.04,6.04v2.91c4.94,0,8.94-4,8.94-8.94s-4-8.94-8.94-8.94Z"/>
      <rect x="57.94" width="3.12" height="3.03"/>
      <rect x="146.41" width="3.12" height="3.03"/>
    </g>
  </g>
</svg>