<?xml version="1.0" encoding="UTF-8"?>
<svg id="Layer_2" data-name="Layer 2" xmlns="http://www.w3.org/2000/svg" viewBox="0 0 67 45.01">
  <g id="Layer_1-2" data-name="Layer 1">
    <g>
      <g>
        <polygon points="11.38 .43 7.84 11.46 4.25 .43 0 .43 5.25 16.58 7.66 16.58 8.6 16.58 10.44 16.58 15.63 .43 11.38 .43"/>
        <rect x="0" y="20.62" width="31.69" height="4.05"/>
        <path d="M27.69,8.52c0,.65-.06,1.28-.19,1.89-.13.61-.34,1.17-.64,1.65-.3.49-.71.88-1.22,1.17-.51.29-1.14.44-1.89.44s-1.37-.15-1.87-.44c-.5-.29-.9-.68-1.2-1.17-.3-.49-.52-1.04-.64-1.65-.12-.61-.19-1.24-.19-1.89s.06-1.28.19-1.9.34-1.18.64-1.65c.3-.48.7-.87,1.2-1.17.5-.3,1.12-.45,1.87-.45s1.38.15,1.89.45c.51.3.92.69,1.22,1.17.3.48.51,1.03.64,1.65.12.62.19,1.26.19,1.9M32.12,8.52c0-1.29-.2-2.46-.59-3.51-.4-1.05-.96-1.95-1.69-2.68-.73-.74-1.61-1.31-2.64-1.72-1.03-.41-2.18-.61-3.45-.61s-2.41.2-3.43.61c-1.02.41-1.89.98-2.62,1.72-.73.74-1.29,1.63-1.69,2.68-.4,1.05-.59,2.22-.59,3.51s.2,2.46.59,3.5c.39,1.04.96,1.93,1.69,2.67.73.74,1.6,1.31,2.62,1.7,1.02.39,2.16.59,3.43.59s2.42-.2,3.45-.59c1.03-.39,1.91-.96,2.64-1.7.73-.74,1.29-1.63,1.69-2.67.4-1.04.59-2.21.59-3.5"/>
      </g>
      <g>
        <path d="M2.69,31.45c-.23,0-.42.05-.57.15-.15.1-.28.24-.37.4-.1.16-.16.34-.2.54-.04.2-.06.39-.06.58s.02.38.06.57c.04.19.1.37.19.52.09.16.21.28.36.38.15.1.34.15.56.15.34,0,.6-.09.78-.28.18-.19.3-.44.34-.76h1.37c-.09.68-.36,1.21-.8,1.57-.44.36-1,.54-1.69.54-.39,0-.74-.06-1.06-.19-.32-.13-.6-.31-.82-.54-.23-.23-.4-.51-.53-.83-.13-.32-.19-.68-.19-1.06s.06-.77.17-1.11c.12-.34.29-.64.51-.89.23-.25.5-.44.83-.58.33-.14.7-.21,1.12-.21.31,0,.6.04.88.12.28.08.54.2.76.36.22.16.4.37.54.61.14.24.22.53.24.86h-1.39c-.09-.59-.44-.89-1.05-.89Z"/>
        <path d="M5.48,31.98c.13-.34.31-.62.54-.86.23-.24.51-.42.84-.55.33-.13.69-.19,1.1-.19s.77.06,1.1.19.61.31.84.55c.23.24.41.52.54.86.13.34.19.71.19,1.12s-.06.78-.19,1.12c-.13.33-.31.62-.54.85-.23.24-.51.42-.84.54-.33.13-.7.19-1.1.19s-.77-.06-1.1-.19c-.33-.13-.61-.31-.84-.54-.23-.24-.41-.52-.54-.85-.13-.33-.19-.7-.19-1.12s.06-.79.19-1.12ZM6.77,33.7c.04.2.11.37.2.53.1.16.22.28.38.37.16.09.36.14.6.14s.44-.05.6-.14c.16-.09.29-.22.39-.37.1-.16.16-.33.2-.53.04-.2.06-.4.06-.6s-.02-.41-.06-.61c-.04-.2-.11-.38-.2-.53-.1-.15-.23-.28-.39-.37-.16-.1-.36-.14-.6-.14s-.44.05-.6.14c-.16.1-.29.22-.38.37-.1.15-.16.33-.2.53s-.06.4-.06.61.02.41.06.6Z"/>
        <path d="M12.43,30.52v.7h.02c.19-.27.41-.47.67-.62.26-.15.56-.22.9-.22s.62.06.89.19c.27.13.47.35.61.67.15-.23.36-.43.62-.6.26-.17.57-.26.93-.26.27,0,.53.03.76.1.23.07.43.17.6.32.17.15.3.34.39.57.09.24.14.52.14.85v3.45h-1.42v-2.92c0-.17,0-.34-.02-.49-.01-.15-.05-.29-.11-.4-.06-.11-.15-.2-.26-.27-.12-.07-.27-.1-.47-.1s-.36.04-.48.11c-.12.08-.22.18-.29.3-.07.12-.12.26-.14.42-.02.16-.03.31-.03.47v2.87h-1.42v-2.89c0-.15,0-.3,0-.45,0-.15-.03-.29-.08-.41-.05-.13-.13-.23-.25-.3-.12-.08-.29-.11-.51-.11-.07,0-.15.01-.26.04s-.22.09-.32.17c-.1.08-.19.2-.26.36-.07.16-.11.36-.11.61v2.99h-1.42v-5.16h1.34Z"/>
        <path d="M20.96,30.52v.7h.02c.19-.27.41-.47.67-.62.26-.15.56-.22.9-.22s.62.06.89.19c.27.13.47.35.61.67.15-.23.36-.43.62-.6.26-.17.57-.26.93-.26.27,0,.53.03.76.1.23.07.43.17.6.32.17.15.3.34.39.57.09.24.14.52.14.85v3.45h-1.42v-2.92c0-.17,0-.34-.02-.49-.01-.15-.05-.29-.11-.4-.06-.11-.15-.2-.26-.27-.12-.07-.27-.1-.47-.1s-.36.04-.48.11c-.12.08-.22.18-.29.3-.07.12-.12.26-.14.42-.02.16-.03.31-.03.47v2.87h-1.42v-2.89c0-.15,0-.3,0-.45,0-.15-.03-.29-.08-.41-.05-.13-.13-.23-.25-.3-.12-.08-.29-.11-.51-.11-.07,0-.15.01-.26.04-.11.03-.22.09-.32.17-.1.08-.19.2-.26.36-.07.16-.11.36-.11.61v2.99h-1.42v-5.16h1.34Z"/>
        <path d="M31.61,35.67v-.72h-.03c-.18.3-.41.52-.7.65-.29.13-.58.2-.88.2-.38,0-.69-.05-.93-.15-.24-.1-.43-.24-.57-.42-.14-.18-.24-.41-.29-.67-.06-.26-.08-.55-.08-.87v-3.17h1.42v2.91c0,.43.07.74.2.95.13.21.37.31.71.31.39,0,.66-.11.84-.34.17-.23.26-.61.26-1.13v-2.7h1.42v5.16h-1.35Z"/>
        <path d="M34.89,30.52v.72h.03c.18-.3.41-.52.7-.65.29-.14.58-.2.88-.2.38,0,.69.05.93.15.24.1.43.25.57.43.14.18.24.41.29.67.06.26.08.55.08.87v3.17h-1.42v-2.91c0-.43-.07-.74-.2-.95-.13-.21-.37-.31-.71-.31-.39,0-.66.11-.84.34-.17.23-.26.61-.26,1.13v2.7h-1.42v-5.16h1.35Z"/>
        <path d="M39,29.72v-1.17h1.42v1.17h-1.42ZM40.41,30.52v5.16h-1.42v-5.16h1.42Z"/>
        <path d="M43.49,31.45c-.23,0-.42.05-.57.15-.15.1-.28.24-.37.4-.1.16-.16.34-.2.54-.04.2-.06.39-.06.58s.02.38.06.57c.04.19.1.37.19.52.09.16.21.28.36.38.15.1.34.15.56.15.34,0,.6-.09.78-.28.18-.19.3-.44.34-.76h1.37c-.09.68-.36,1.21-.8,1.57-.44.36-1,.54-1.69.54-.39,0-.74-.06-1.06-.19-.32-.13-.6-.31-.82-.54-.23-.23-.4-.51-.53-.83-.13-.32-.19-.68-.19-1.06s.06-.77.17-1.11c.12-.34.29-.64.51-.89.23-.25.5-.44.83-.58.33-.14.7-.21,1.12-.21.31,0,.6.04.88.12.28.08.54.2.76.36.22.16.4.37.54.61.14.24.22.53.24.86h-1.39c-.09-.59-.44-.89-1.05-.89Z"/>
        <path d="M46.2,32.1c.02-.33.1-.61.25-.83.15-.22.33-.4.56-.53.23-.13.48-.23.76-.28.28-.06.57-.08.85-.08.26,0,.52.02.79.05.27.04.51.11.73.21.22.11.4.25.54.44s.21.44.21.75v2.68c0,.23.01.46.04.67.03.21.07.37.14.48h-1.44c-.03-.08-.05-.16-.06-.24-.02-.08-.03-.17-.03-.25-.23.23-.49.4-.8.49-.31.09-.62.14-.94.14-.25,0-.48-.03-.69-.09-.21-.06-.4-.15-.56-.28-.16-.13-.28-.29-.37-.48-.09-.19-.13-.42-.13-.69,0-.29.05-.53.15-.72.1-.19.24-.34.4-.45.16-.11.35-.2.56-.25.21-.06.42-.1.63-.13.21-.03.42-.06.63-.08.21-.02.39-.05.55-.09.16-.04.29-.1.38-.17.09-.08.14-.19.13-.33,0-.15-.02-.27-.07-.36s-.12-.16-.2-.21c-.08-.05-.18-.08-.29-.1-.11-.02-.23-.02-.35-.02-.28,0-.5.06-.66.18-.16.12-.25.32-.28.6h-1.42ZM49.47,33.15c-.06.05-.13.09-.22.12-.09.03-.19.05-.29.07-.1.02-.21.04-.32.05-.11.01-.23.03-.34.05-.11.02-.21.05-.31.08-.1.03-.19.08-.27.13-.08.06-.14.13-.18.21-.05.09-.07.2-.07.33s.02.23.07.32c.05.09.11.15.19.2s.17.08.28.1c.11.02.22.03.33.03.28,0,.5-.05.65-.14.15-.09.27-.2.34-.33.07-.13.12-.26.13-.39.02-.13.02-.24.02-.32v-.53Z"/>
        <path d="M54.31,30.52v.95h-1.04v2.55c0,.24.04.4.12.48.08.08.24.12.48.12.08,0,.16,0,.23,0,.07,0,.14-.02.21-.03v1.1c-.12.02-.25.03-.4.04-.15,0-.29,0-.43,0-.22,0-.43-.01-.62-.04-.2-.03-.37-.09-.52-.17-.15-.09-.27-.21-.35-.37-.09-.16-.13-.37-.13-.63v-3.04h-.86v-.95h.86v-1.55h1.42v1.55h1.04Z"/>
        <path d="M54.53,29.72v-1.17h1.42v1.17h-1.42ZM55.95,30.52v5.16h-1.42v-5.16h1.42Z"/>
        <path d="M56.6,31.98c.13-.34.31-.62.54-.86.23-.24.51-.42.84-.55.33-.13.69-.19,1.1-.19s.77.06,1.1.19.61.31.84.55c.23.24.41.52.54.86.13.34.19.71.19,1.12s-.06.78-.19,1.12c-.13.33-.31.62-.54.85-.23.24-.51.42-.84.54-.33.13-.7.19-1.1.19s-.77-.06-1.1-.19c-.33-.13-.61-.31-.84-.54-.23-.24-.41-.52-.54-.85-.13-.33-.19-.7-.19-1.12s.06-.79.19-1.12ZM57.88,33.7c.04.2.11.37.2.53.1.16.22.28.38.37.16.09.36.14.6.14s.44-.05.6-.14c.16-.09.29-.22.39-.37.1-.16.16-.33.2-.53.04-.2.06-.4.06-.6s-.02-.41-.06-.61-.11-.38-.2-.53c-.1-.15-.23-.28-.39-.37-.16-.1-.36-.14-.6-.14s-.44.05-.6.14c-.16.1-.29.22-.38.37-.1.15-.16.33-.2.53s-.06.4-.06.61.02.41.06.6Z"/>
        <path d="M63.51,30.52v.72h.03c.18-.3.41-.52.7-.65.29-.14.58-.2.88-.2.38,0,.69.05.93.15.24.1.43.25.57.43.14.18.24.41.29.67.06.26.08.55.08.87v3.17h-1.42v-2.91c0-.43-.07-.74-.2-.95-.13-.21-.37-.31-.71-.31-.39,0-.66.11-.84.34-.17.23-.26.61-.26,1.13v2.7h-1.42v-5.16h1.35Z"/>
        <path d="M5.1,43.45c-.06.27-.18.51-.36.74-.19.23-.46.42-.81.58-.35.16-.82.24-1.42.24-.25,0-.51-.03-.77-.09-.26-.06-.5-.16-.72-.29-.22-.13-.4-.3-.54-.51-.14-.21-.22-.46-.24-.75h1.41c.07.27.2.45.39.55.19.1.42.15.67.15.4,0,.69-.12.87-.36.18-.24.27-.54.26-.91v-.68h-.02c-.15.27-.37.47-.65.6-.28.13-.58.19-.89.19-.39,0-.72-.07-1-.2-.28-.14-.51-.32-.69-.56-.18-.24-.31-.51-.39-.83-.08-.32-.12-.65-.12-1,0-.33.05-.65.14-.96.1-.31.24-.58.42-.82.19-.24.42-.42.69-.56.28-.14.59-.21.95-.21.34,0,.64.06.89.19.26.13.47.34.64.64h.02v-.69h1.35v4.83c0,.21-.03.44-.08.71ZM3.16,41.73c.15-.08.28-.19.38-.32.1-.13.17-.28.22-.45.05-.17.07-.35.07-.53,0-.21-.02-.41-.06-.6s-.11-.36-.2-.5c-.09-.15-.22-.26-.37-.35-.15-.09-.35-.13-.58-.13-.2,0-.37.04-.51.12-.14.08-.26.19-.36.32-.1.14-.17.29-.21.47-.04.18-.06.36-.06.55s.02.37.05.55c.04.18.1.35.19.49.09.15.21.27.35.36.15.09.33.14.55.14.2,0,.38-.04.53-.12Z"/>
        <path d="M7.17,37.91v.96h.02c.07-.16.16-.31.27-.44.11-.14.24-.25.39-.35.15-.1.3-.17.47-.22.17-.05.34-.08.52-.08.09,0,.2.02.31.05v1.32c-.07-.01-.15-.02-.24-.03-.09,0-.18-.01-.27-.01-.26,0-.48.04-.66.13-.18.09-.32.2-.43.35-.11.15-.19.32-.23.52-.05.2-.07.42-.07.65v2.32h-1.42v-5.16h1.35Z"/>
        <path d="M9.06,39.37c.13-.34.31-.62.54-.86.23-.24.51-.42.84-.55.33-.13.69-.19,1.1-.19s.77.06,1.1.19c.33.13.61.31.84.55.23.24.41.52.54.86.13.34.19.71.19,1.12s-.06.78-.19,1.12c-.13.33-.31.62-.54.85-.23.24-.51.42-.84.54-.33.13-.7.19-1.1.19s-.77-.06-1.1-.19c-.33-.13-.61-.31-.84-.54-.23-.24-.41-.52-.54-.85-.13-.33-.19-.7-.19-1.12s.06-.79.19-1.12ZM10.34,41.1c.04.2.11.37.2.53.1.16.22.28.38.37.16.09.36.14.6.14s.44-.05.6-.14c.16-.09.29-.22.39-.37.1-.16.16-.33.2-.53.04-.2.06-.4.06-.6s-.02-.41-.06-.61-.11-.38-.2-.53c-.1-.15-.23-.28-.39-.37-.16-.1-.36-.14-.6-.14s-.44.05-.6.14c-.16.1-.29.22-.38.37-.1.15-.16.33-.2.53-.04.2-.06.4-.06.61s.02.41.06.6Z"/>
        <path d="M18.11,43.07v-.72h-.03c-.18.3-.41.52-.7.65-.29.13-.58.2-.88.2-.38,0-.69-.05-.93-.15-.24-.1-.43-.24-.57-.42-.14-.18-.24-.41-.29-.67-.06-.26-.08-.55-.08-.87v-3.17h1.42v2.91c0,.43.07.74.2.95.13.21.37.31.71.31.39,0,.66-.11.84-.34.17-.23.26-.61.26-1.13v-2.7h1.42v5.16h-1.35Z"/>
        <path d="M21.38,37.91v.66h.02c.17-.28.39-.48.66-.61.27-.13.56-.19.88-.19.41,0,.75.08,1.05.23.29.15.54.36.73.61.19.25.34.55.43.88.09.34.14.69.14,1.05,0,.35-.05.68-.14,1-.09.32-.23.6-.42.85-.19.25-.43.44-.71.59-.28.15-.61.22-.99.22-.32,0-.61-.06-.88-.19-.27-.13-.49-.32-.66-.57h-.02v2.44h-1.42v-6.96h1.35ZM23.22,42c.16-.09.28-.21.38-.36.1-.15.16-.32.2-.52.04-.2.06-.4.06-.61s-.02-.41-.06-.61c-.04-.2-.11-.38-.21-.53-.1-.16-.23-.28-.38-.38-.16-.1-.35-.14-.57-.14s-.43.05-.58.14c-.16.1-.28.22-.38.37-.1.15-.16.33-.2.53-.04.2-.06.41-.06.62s.02.41.06.61c.04.2.11.37.21.52.1.15.22.27.38.36.16.09.35.14.58.14s.43-.05.58-.14Z"/>
      </g>
    </g>
  </g>
</svg>