<?xml version="1.0" encoding="utf-8"?>
<!-- Generator: Adobe Illustrator 25.4.2, SVG Export Plug-In . SVG Version: 6.00 Build 0)  -->
<svg version="1.1" id="Layer_1" xmlns="http://www.w3.org/2000/svg" xmlns:xlink="http://www.w3.org/1999/xlink" x="0px" y="0px"
	 viewBox="0 0 1242.5 1741" style="enable-background:new 0 0 1242.5 1741;" xml:space="preserve">
<g>
	<polygon points="361.2,147.8 256.5,474 150.5,147.8 24.7,147.8 179.9,625.5 251.3,625.5 279.2,625.5 333.6,625.5 486.9,147.8 	"/>
	<rect x="24.7" y="745.2" width="937.5" height="119.7"/>
	<g>
		<path d="M843.9,387.2c0,19.1-1.8,37.7-5.5,55.9c-3.7,18.2-10,34.5-18.9,49c-8.9,14.5-20.9,26-36,34.6
			c-15.1,8.6-33.7,12.9-55.9,12.9c-22.2,0-40.6-4.3-55.4-12.9c-14.8-8.6-26.6-20.2-35.6-34.6c-8.9-14.5-15.2-30.8-18.9-49
			c-3.7-18.2-5.5-36.8-5.5-55.9c0-19.1,1.8-37.9,5.5-56.3c3.7-18.5,10-34.8,18.9-49c8.9-14.2,20.8-25.7,35.6-34.6
			c14.8-8.9,33.3-13.4,55.4-13.4c22.2,0,40.8,4.5,55.9,13.4c15.1,8.9,27.1,20.5,36,34.6c8.9,14.2,15.2,30.5,18.9,49
			C842.1,349.3,843.9,368.1,843.9,387.2 M975.1,387.2c0-38.2-5.9-72.8-17.6-103.9c-11.7-31.1-28.3-57.6-49.9-79.4
			c-21.6-21.9-47.6-38.8-78-50.8c-30.5-12-64.5-18-102.1-18c-37.6,0-71.4,6-101.6,18c-30.2,12-56,29-77.6,50.8
			c-21.6,21.9-38.2,48.3-49.9,79.4c-11.7,31.1-17.5,65.7-17.5,103.9c0,38.2,5.8,72.7,17.5,103.4c11.7,30.8,28.3,57.1,49.9,79
			c21.5,21.9,47.4,38.6,77.6,50.3c30.2,11.7,64,17.5,101.6,17.5c37.6,0,71.6-5.9,102.1-17.5c30.5-11.7,56.5-28.5,78-50.3
			c21.5-21.9,38.2-48.2,49.9-79C969.2,459.9,975.1,425.4,975.1,387.2"/>
	</g>
</g>
<g>
	<rect x="24.7" y="984.6" width="131.4" height="621.3"/>
	<path d="M661.1,1499.4v-248.8c0-29-6.5-52.3-19.4-69.8c-13-17.6-29.6-31.3-50-41.2c-20.4-9.9-42.9-16.5-67.5-19.9
		c-24.7-3.4-49-5.1-73.1-5.1c-26.5,0-52.9,2.6-79.1,7.9c-26.2,5.2-49.8,14-70.8,26.4c-21,12.3-38.2,28.7-51.8,49
		c-13.6,20.3-21.3,45.9-23.1,76.8h131.4c2.5-25.9,11.1-44.4,25.9-55.5c14.8-11.1,35.1-16.7,61.1-16.7c11.7,0,22.7,0.8,32.8,2.3
		c10.2,1.5,19.1,4.6,26.8,9.2c7.7,4.6,13.9,11.1,18.5,19.4s6.9,19.6,6.9,33.8c0.6,13.6-3.4,23.9-12,31c-8.6,7.1-20.4,12.5-35.2,16.2
		s-31.8,6.5-50.9,8.3c-19.1,1.8-38.5,4.3-58.3,7.4c-19.7,3.1-39.3,7.3-58.7,12.5c-19.4,5.2-36.7,13.1-51.8,23.6
		c-15.1,10.5-27.4,24.5-37,42.1c-9.6,17.6-14.3,39.9-14.3,67.1c0,24.7,4.2,45.9,12.5,63.8c8.3,17.9,19.9,32.7,34.7,44.4
		c14.8,11.7,32.1,20.4,51.8,25.9c19.7,5.5,41,8.3,63.8,8.3c29.6,0,58.6-4.3,87-13c28.4-8.6,53-23.7,74-45.3c0.6,8,1.7,15.9,3.2,23.6
		c1.5,7.7,3.5,15.3,6,22.7h133.2c-6.2-9.9-10.5-24.7-12.9-44.4C662.3,1541.7,661.1,1521,661.1,1499.4z M529.7,1420.8
		c0,7.4-0.8,17.3-2.3,29.6c-1.5,12.3-5.7,24.5-12.5,36.5c-6.8,12-17.3,22.4-31.5,31c-14.2,8.6-34.2,13-60.1,13
		c-10.5,0-20.7-0.9-30.5-2.8c-9.9-1.8-18.5-5.1-25.9-9.7s-13.3-10.9-17.6-19c-4.3-8-6.5-17.9-6.5-29.6c0-12.3,2.2-22.5,6.5-30.5
		c4.3-8,10-14.6,17.1-19.9c7.1-5.2,15.4-9.4,25-12.5c9.6-3.1,19.3-5.5,29.1-7.4c10.5-1.9,21-3.4,31.5-4.6
		c10.5-1.2,20.5-2.8,30.1-4.6c9.6-1.9,18.5-4.2,26.8-6.9c8.3-2.8,15.3-6.6,20.8-11.6V1420.8z"/>
	<path d="M1200.2,1252.9c-11.7-31.8-27-57.8-45.8-78.2c-18.8-20.3-39.9-35.5-63.4-45.3c-23.4-9.9-47.2-14.8-71.2-14.8
		c-29.6,0-58.1,5.7-85.6,17.1c-27.4,11.4-49.2,29.5-65.2,54.1h-1.8V984.6H735.9v621.3h124.9v-61h1.8c14.2,26.5,35.2,45.3,62.9,56.4
		c27.8,11.1,59.2,16.7,94.3,16.7c24,0,47.8-4.9,71.2-14.8c23.4-9.9,44.5-25,63.4-45.3c18.8-20.4,34.1-46.4,45.8-78.2
		c11.7-31.8,17.6-69.5,17.6-113.3C1217.8,1322.5,1211.9,1284.7,1200.2,1252.9z M1080,1424.5c-4.3,18.5-11.1,34.8-20.3,49
		c-9.2,14.2-20.8,25.4-34.7,33.8c-13.9,8.3-30.7,12.5-50.4,12.5c-19.1,0-35.8-4.2-50-12.5c-14.2-8.3-25.9-19.6-35.1-33.8
		c-9.2-14.2-16-30.5-20.4-49c-4.3-18.5-6.5-37.6-6.5-57.3c0-20.4,2.2-39.8,6.5-58.3c4.3-18.5,11.1-34.8,20.4-49
		c9.2-14.2,21-25.4,35.1-33.8c14.2-8.3,30.8-12.5,50-12.5c19.7,0,36.5,4.2,50.4,12.5c13.9,8.3,25.4,19.6,34.7,33.8
		c9.2,14.2,16,30.5,20.3,49c4.3,18.5,6.5,37.9,6.5,58.3C1086.4,1386.9,1084.3,1406,1080,1424.5z"/>
</g>
</svg>
