<?xml version="1.0" encoding="UTF-8"?>
<svg id="Layer_2" data-name="Layer 2" xmlns="http://www.w3.org/2000/svg" viewBox="0 0 308.44 64.15">
  <g id="Layer_1-2" data-name="Layer 1">
    <path d="M287.75,55.01c0,1.72.18,2.97.53,3.73.36.76,1.07,1.32,2.13,1.67,1.12.3,2.89.46,5.33.46v1.75h-22.68v-1.75c2.49,0,4.26-.15,5.33-.46,1.12-.36,1.85-.91,2.21-1.67.36-.76.53-2,.53-3.73v-19.18l-13.62-27.32c-1.07-2.08-2.18-3.45-3.35-4.11-1.17-.66-2.92-.99-5.25-.99v-1.67h21.15v1.67c-2.33,0-3.93.13-4.79.38-.81.25-1.22.69-1.22,1.29.05.56.4,1.52,1.07,2.89l.23.53,11.19,22.6h.23l10.12-22.52c.05-.05.08-.1.08-.15.05-.1.1-.2.15-.3.61-1.42.91-2.43.91-3.04.05-.61-.36-1.04-1.22-1.29-.81-.25-2.41-.38-4.79-.38v-1.67h16.44v1.67c-1.62,0-2.92.15-3.88.46-.91.25-1.72.76-2.43,1.52-.66.71-1.34,1.8-2.05,3.27l-12.33,27.16v19.18Z"/>
    <path d="M239.41,1.75v53.26c0,1.72.18,2.97.53,3.73s1.07,1.32,2.13,1.67c1.12.3,2.92.46,5.4.46v1.75h-22.67v-1.75c2.43,0,4.18-.15,5.25-.46,1.12-.36,1.85-.91,2.21-1.67.35-.76.53-2,.53-3.73V1.75h6.62ZM232.79,1.75v2.82h-10.04c-1.67,0-2.94.28-3.8.84-.81.51-1.45,1.55-1.9,3.12-.46,1.52-.84,3.98-1.14,7.38l-1.75-.15,1.07-12.25.23-1.75h17.35ZM256.99,3.5l1.07,12.25-1.67.15c-.36-3.4-.76-5.86-1.22-7.38-.46-1.57-1.12-2.61-1.98-3.12-.81-.56-2.05-.84-3.73-.84h-10.04V1.75h17.43l.15,1.75Z"/>
    <path d="M197.91,9.28c0-1.67-.2-2.89-.61-3.65-.35-.76-1.09-1.32-2.21-1.67-1.06-.35-2.82-.53-5.25-.53v-1.67h22.68v1.67c-2.43,0-4.21.18-5.33.53-1.07.35-1.77.91-2.13,1.67-.35.76-.53,1.98-.53,3.65v45.73c0,1.72.18,2.97.53,3.73.36.76,1.07,1.32,2.13,1.67,1.12.3,2.89.46,5.33.46v1.75h-22.68v-1.75c2.43,0,4.19-.15,5.25-.46,1.12-.36,1.85-.91,2.21-1.67.41-.76.61-2,.61-3.73V9.28Z"/>
    <path d="M150.53,62.62h-8.83v-1.75c2.43,0,4.18-.15,5.25-.46,1.12-.36,1.85-.91,2.21-1.67.41-.76.61-2,.61-3.73V9.28c0-1.67-.2-2.89-.61-3.65-.35-.76-1.09-1.32-2.21-1.67-1.07-.35-2.82-.53-5.25-.53v-1.67h21.15c5.83,0,10.35,1.32,13.54,3.96,3.2,2.59,4.79,6.34,4.79,11.26,0,4.36-1.14,7.71-3.42,10.04-2.28,2.33-5.1,3.91-8.45,4.72-3.3.76-6.92,1.14-10.88,1.14h-2.05v22.14c0,1.72.18,2.97.53,3.73.36.76,1.07,1.32,2.13,1.67,1.12.3,2.89.46,5.33.46v1.75h-13.85ZM174.35,16.89c0-3.96-1.09-7-3.27-9.13-2.13-2.13-4.95-3.2-8.45-3.2-2.43,0-4.51.46-6.24,1.37v24.12h2.05c4.16.05,7.84-.86,11.03-2.74,3.25-1.93,4.87-5.4,4.87-10.42ZM179.15,55.85c1.01,2.08,2.1,3.45,3.27,4.11,1.22.61,2.99.91,5.33.91v1.75h-5.93c-2.03,0-3.53-.1-4.49-.3-.96-.2-1.83-.68-2.59-1.45-.71-.76-1.47-2.03-2.28-3.8l-12.25-24.27,3.8-.15v.23c.96.3,1.85.76,2.66,1.37.81.56,1.6,1.34,2.36,2.36.76.96,1.5,2.16,2.21,3.58l7.91,15.68Z"/>
    <path d="M123.23,40.56v2.89h-23.44v-2.89h23.44ZM110.98,11.49l-13.7,43.9c-.51,1.62-.74,2.79-.69,3.5.05.71.53,1.22,1.45,1.52.91.3,2.59.46,5.02.46v1.75h-16.13v-1.75c1.57,0,2.79-.13,3.65-.38.91-.3,1.65-.84,2.21-1.6.56-.76,1.09-1.93,1.6-3.5L111.74,0h3.04l17.81,55.4c.51,1.57,1.04,2.74,1.6,3.5.61.76,1.34,1.29,2.21,1.6.86.25,2.11.38,3.73.38v1.75h-20.7v-1.75c2.43,0,4.11-.15,5.02-.46.91-.3,1.39-.79,1.45-1.45.05-.71-.2-1.9-.76-3.58l-13.93-43.9h-.23Z"/>
    <path d="M59.21,1.75h8.75v1.67c-2.43,0-4.21.18-5.33.53-1.07.35-1.78.91-2.13,1.67-.36.76-.53,1.98-.53,3.65v45.66c0,1.37.1,2.41.3,3.12.25.66.66,1.12,1.22,1.37.61.2,1.55.3,2.82.3h12.63c1.67,0,2.97-.33,3.88-.99.96-.66,1.83-1.95,2.59-3.88.81-1.98,1.72-5.07,2.74-9.28l1.75.38-3.65,15.07-.38,1.6h-38.58v-1.75c2.43,0,4.18-.15,5.25-.46,1.12-.36,1.85-.91,2.21-1.67.41-.76.61-2,.61-3.73V9.28c0-1.67-.2-2.89-.61-3.65-.36-.76-1.09-1.32-2.21-1.67-1.07-.35-2.82-.53-5.25-.53v-1.67h13.92Z"/>
    <path d="M0,32.19c0-6.04.96-11.49,2.89-16.36,1.98-4.87,4.79-8.68,8.45-11.41C14.99,1.62,19.23.23,24.05.23c2.38,0,4.36.3,5.94.91,1.62.56,3.35,1.34,5.17,2.36.51.3.99.56,1.45.76.46.2.81.3,1.07.3.51,0,.86-.2,1.07-.61.2-.46.3-1.45.3-2.97h1.75l1.14,20.93h-1.75c-1.22-12.58-6.24-18.87-15.07-18.87-3.7,0-6.9,1.29-9.59,3.88-2.69,2.54-4.74,6.01-6.16,10.43-1.42,4.41-2.13,9.36-2.13,14.84s.71,10.4,2.13,14.76c1.42,4.31,3.45,7.71,6.09,10.2,2.69,2.49,5.86,3.73,9.51,3.73,4.82,0,8.8-2.03,11.95-6.09,3.2-4.11,5.25-9.69,6.16-16.74h1.67c-1.01,8.01-3.3,14.38-6.85,19.1-3.5,4.67-8.24,7-14.23,7-4.82,0-9.03-1.4-12.63-4.18-3.55-2.79-6.29-6.59-8.22-11.41-1.88-4.82-2.82-10.27-2.82-16.36Z"/>
  </g>
</svg>