<?xml version="1.0" encoding="UTF-8"?>
<svg id="Layer_2" data-name="Layer 2" xmlns="http://www.w3.org/2000/svg" viewBox="0 0 85.82 9.42">
  <defs>
    <style>
      .cls-1 {
        fill: none;
        stroke: rgba(0, 0, 0, .5);
        stroke-width: .5px;
      }
    </style>
  </defs>
  <g id="Layer_1-2" data-name="Layer 1">
    <path d="M7.75,6.71l.23.05-.79,2.52H0v-.25h.35c.39,0,.67-.13.84-.38.1-.15.14-.48.14-1.01V1.64c0-.58-.06-.94-.19-1.09-.18-.2-.44-.3-.79-.3h-.35v-.25h4.2v.25c-.49,0-.84.04-1.04.14-.19.1-.33.22-.4.36-.07.15-.11.49-.11,1.05v5.82c0,.38.04.64.11.78.05.1.14.17.25.21.11.04.47.07,1.07.07h.68c.71,0,1.21-.05,1.5-.16.29-.1.55-.29.79-.55.24-.27.47-.69.71-1.26ZM12.6,9.02v.25h-3.97v-.25h.33c.38,0,.66-.11.83-.33.11-.15.16-.5.16-1.05V1.64c0-.47-.03-.78-.09-.93-.05-.11-.14-.21-.28-.29-.2-.11-.41-.16-.63-.16h-.33v-.25h3.97v.25h-.34c-.38,0-.65.11-.83.33-.11.15-.17.5-.17,1.05v5.99c0,.47.03.78.09.93.04.11.14.21.29.29.2.11.4.16.62.16h.34ZM12.76,0h2.52l5.67,6.95V1.61c0-.57-.06-.92-.19-1.07-.17-.19-.43-.29-.8-.29h-.32v-.25h3.23v.25h-.33c-.39,0-.67.12-.83.36-.1.15-.15.48-.15,1v7.81h-.25L15.18,1.96v5.71c0,.57.06.93.18,1.07.17.19.44.29.8.29h.33v.25h-3.23v-.25h.32c.4,0,.68-.12.84-.36.1-.15.15-.48.15-1V1.22c-.27-.31-.47-.52-.62-.62-.14-.1-.34-.19-.61-.28-.13-.04-.33-.06-.6-.06v-.25ZM27.24,4.13l3.42,3.4c.56.56,1.04.94,1.44,1.15.4.2.79.32,1.19.34v.25h-4.41v-.25c.26,0,.45-.04.57-.13.12-.09.18-.19.18-.3s-.02-.21-.07-.29c-.04-.09-.18-.25-.42-.49l-3.2-3.17v2.99c0,.47.03.78.09.93.05.11.14.21.29.29.2.11.4.16.62.16h.31v.25h-3.95v-.25h.33c.38,0,.66-.11.83-.33.11-.15.16-.5.16-1.05V1.64c0-.47-.03-.78-.09-.94-.05-.11-.14-.21-.28-.29-.2-.11-.41-.16-.63-.16h-.33v-.25h3.95v.25h-.31c-.21,0-.42.05-.62.16-.14.07-.24.18-.29.33-.05.15-.08.45-.08.9v2.84c.09-.09.4-.38.94-.87,1.35-1.24,2.17-2.07,2.45-2.48.12-.18.18-.34.18-.48,0-.1-.05-.2-.14-.27-.1-.08-.26-.12-.49-.12h-.21v-.25h3.41v.25c-.2,0-.38.03-.55.08-.16.05-.37.15-.6.29-.24.14-.53.37-.88.69-.1.09-.56.56-1.39,1.4l-1.42,1.41ZM36.1.51v3.66h2.04c.53,0,.88-.08,1.06-.24.24-.21.37-.58.4-1.11h.25v3.23h-.25c-.06-.45-.13-.74-.19-.87-.08-.16-.22-.29-.4-.38-.19-.09-.47-.14-.86-.14h-2.04v3.06c0,.41.02.66.05.75.04.09.1.16.19.21.09.05.26.08.52.08h1.57c.52,0,.9-.04,1.14-.11.24-.07.47-.22.68-.43.28-.28.57-.71.87-1.28h.27l-.8,2.32h-7.14v-.25h.33c.22,0,.43-.05.62-.16.15-.07.24-.18.29-.33.05-.15.08-.44.08-.9V1.61c0-.59-.06-.95-.18-1.09-.16-.18-.44-.27-.82-.27h-.33v-.25h7.14l.1,2.03h-.27c-.1-.49-.2-.82-.32-1.01-.11-.18-.28-.32-.51-.42-.18-.07-.5-.1-.96-.1h-2.54ZM41.97,9.27v-.25h.35c.39,0,.67-.12.83-.38.1-.15.15-.49.15-1.01V1.64c0-.58-.06-.94-.19-1.09-.18-.2-.44-.3-.79-.3h-.35v-.25h3.77c1.39,0,2.44.16,3.16.47.72.31,1.3.84,1.74,1.57.44.73.66,1.58.66,2.54,0,1.29-.39,2.37-1.18,3.23-.88.97-2.22,1.45-4.02,1.45h-4.14ZM44.62,8.6c.58.13,1.07.19,1.46.19,1.06,0,1.93-.37,2.63-1.11.7-.74,1.05-1.75,1.05-3.02s-.35-2.29-1.05-3.03c-.7-.74-1.59-1.11-2.69-1.11-.41,0-.88.07-1.4.2v7.88ZM56.17,9.02v.25h-3.97v-.25h.33c.38,0,.66-.11.83-.33.11-.15.16-.5.16-1.05V1.64c0-.47-.03-.78-.09-.93-.05-.11-.14-.21-.28-.29-.2-.11-.41-.16-.63-.16h-.33v-.25h3.97v.25h-.33c-.38,0-.65.11-.83.33-.11.15-.17.5-.17,1.05v5.99c0,.47.03.78.09.93.05.11.14.21.29.29.2.11.4.16.62.16h.33ZM56.33,0h2.52l5.67,6.95V1.61c0-.57-.06-.92-.19-1.07-.17-.19-.44-.29-.8-.29h-.32v-.25h3.23v.25h-.33c-.39,0-.67.12-.83.36-.1.15-.15.48-.15,1v7.81h-.25l-6.11-7.46v5.71c0,.57.06.93.18,1.07.17.19.44.29.8.29h.33v.25h-3.23v-.25h.32c.4,0,.68-.12.84-.36.1-.15.15-.48.15-1V1.22c-.27-.31-.47-.52-.62-.62-.14-.1-.34-.19-.61-.28-.13-.04-.33-.06-.6-.06v-.25Z"/>
    <path class="cls-1" d="M85.57,9.24V1.48"/>
    <path class="cls-1" d="M76.72.25h7.76"/>
    <path class="cls-1" d="M76.72,9.18l7.63-7.7"/>
  </g>
</svg>