<svg xmlns="http://www.w3.org/2000/svg" width="23" height="23" viewBox="0 0 23 23">
  <g id="Groupe_4" data-name="Groupe 4" transform="translate(-9 -7)">
    <circle id="Ellipse_1" data-name="Ellipse 1" cx="11.5" cy="11.5" r="11.5" transform="translate(9 7)"/>
    <rect id="Rectangle_1" data-name="Rectangle 1" width="13" height="13" transform="translate(14 11)" fill="#fff"/>
    <path id="instagram" d="M8.062,38.142a1.92,1.92,0,1,0,1.921,1.92A1.92,1.92,0,0,0,8.062,38.142Zm4.489-1.476a1.944,1.944,0,0,0-1.095-1.095,12.773,12.773,0,0,0-3.394-.231,12.678,12.678,0,0,0-3.394.231,1.944,1.944,0,0,0-1.095,1.095,12.8,12.8,0,0,0-.231,3.4,12.748,12.748,0,0,0,.233,3.4,1.944,1.944,0,0,0,1.095,1.095,12.775,12.775,0,0,0,3.394.231,12.674,12.674,0,0,0,3.394-.231,1.944,1.944,0,0,0,1.095-1.095,12.694,12.694,0,0,0,.231-3.4,12.7,12.7,0,0,0-.231-3.4ZM8.062,43.014a2.948,2.948,0,1,1,2.088-.863A2.951,2.951,0,0,1,8.062,43.014Zm3.073-5.338a.685.685,0,1,1,.488-.2.689.689,0,0,1-.488.2ZM14.4,32H1.728A1.728,1.728,0,0,0,0,33.728V46.4a1.728,1.728,0,0,0,1.728,1.728H14.4A1.728,1.728,0,0,0,16.124,46.4V33.728A1.728,1.728,0,0,0,14.4,32Zm-.616,10.438a3.425,3.425,0,0,1-.93,2.411,3.426,3.426,0,0,1-2.411.93c-.951.054-3.8.054-4.751,0a3.431,3.431,0,0,1-2.411-.93,3.414,3.414,0,0,1-.93-2.411c-.054-.951-.054-3.8,0-4.751a3.414,3.414,0,0,1,.93-2.411,3.432,3.432,0,0,1,2.411-.928c.951-.054,3.8-.054,4.751,0a3.427,3.427,0,0,1,2.411.93,3.427,3.427,0,0,1,.93,2.413C13.834,38.638,13.834,41.486,13.781,42.438Z" transform="translate(12.658 -21.486)"/>
  </g>
</svg>
