<svg xmlns="http://www.w3.org/2000/svg" width="23" height="23" viewBox="0 0 23 23">
  <g id="Groupe_6" data-name="Groupe 6" transform="translate(-8 -7)">
    <circle id="Ellipse_1" data-name="Ellipse 1" cx="11.5" cy="11.5" r="11.5" transform="translate(8 7)"/>
    <rect id="Rectangle_1" data-name="Rectangle 1" width="11" height="11" transform="translate(14 13)" fill="#fff"/>
    <path id="twitter" d="M14.534,32H1.744A1.745,1.745,0,0,0,0,33.744v12.79a1.745,1.745,0,0,0,1.744,1.744h12.79a1.745,1.745,0,0,0,1.744-1.744V33.744A1.745,1.745,0,0,0,14.534,32Zm-1.777,5.77c.007.1.007.207.007.309a6.734,6.734,0,0,1-6.78,6.78,6.749,6.749,0,0,1-3.659-1.068,5.021,5.021,0,0,0,.574.029A4.778,4.778,0,0,0,5.857,42.8,2.386,2.386,0,0,1,3.63,41.149a2.568,2.568,0,0,0,1.076-.044A2.383,2.383,0,0,1,2.8,38.766v-.029a2.382,2.382,0,0,0,1.076.3,2.378,2.378,0,0,1-1.061-1.984,2.353,2.353,0,0,1,.323-1.2,6.767,6.767,0,0,0,4.913,2.493,2.388,2.388,0,0,1,4.066-2.177,4.67,4.67,0,0,0,1.512-.574,2.377,2.377,0,0,1-1.046,1.312,4.742,4.742,0,0,0,1.374-.371A5.016,5.016,0,0,1,12.758,37.77Z" transform="translate(11.142 -21.858)"/>
  </g>
</svg>
