<svg xmlns="http://www.w3.org/2000/svg" width="23" height="23" viewBox="0 0 23 23">
  <g id="Groupe_7" data-name="Groupe 7" transform="translate(-7 -7)">
    <circle id="Ellipse_1" data-name="Ellipse 1" cx="11.5" cy="11.5" r="11.5" transform="translate(7 7)"/>
    <rect id="Rectangle_1" data-name="Rectangle 1" width="11" height="11" transform="translate(13 13)" fill="#fff"/>
    <path id="vimeo" d="M12.186,32H1.354A1.356,1.356,0,0,0,0,33.354V44.186A1.356,1.356,0,0,0,1.354,45.54H12.186a1.356,1.356,0,0,0,1.354-1.354V33.354A1.356,1.356,0,0,0,12.186,32Zm-.792,4.5q-.063,1.428-1.995,3.911Q7.4,43,6.024,43c-.571,0-1.052-.526-1.448-1.581-.771-2.82-1.1-4.473-1.735-4.473a3.057,3.057,0,0,0-.768.459l-.459-.592c1.127-.991,2.2-2.091,2.877-2.152q1.142-.109,1.405,1.563c.626,3.965.9,4.564,2.043,2.768A3.858,3.858,0,0,0,8.6,37.516c.106-1-.783-.934-1.384-.677q.721-2.362,2.756-2.3,1.51.041,1.424,1.955Z" transform="translate(11.467 -20.533)"/>
  </g>
</svg>
