<svg xmlns="http://www.w3.org/2000/svg" width="23" height="23" viewBox="0 0 23 23">
  <g id="Groupe_9" data-name="Groupe 9" transform="translate(-7 -7)">
    <circle id="Ellipse_1" data-name="Ellipse 1" cx="11.5" cy="11.5" r="11.5" transform="translate(7 7)"/>
    <path id="globe" d="M10.032,7.3A17.82,17.82,0,0,1,9.938,9.12H4.654A17.044,17.044,0,0,1,4.56,7.3a17.82,17.82,0,0,1,.094-1.824H9.938A17.044,17.044,0,0,1,10.032,7.3Zm.821-1.824h3.508a7.321,7.321,0,0,1,0,3.648H10.852A18.005,18.005,0,0,0,10.944,7.3,18.005,18.005,0,0,0,10.852,5.472Zm3.209-.912H10.735A10.024,10.024,0,0,0,9.16.239a7.31,7.31,0,0,1,4.9,4.32Zm-4.249,0H4.779a11.486,11.486,0,0,1,.769-2.7A4.655,4.655,0,0,1,6.5.393,1.178,1.178,0,0,1,7.3,0a1.178,1.178,0,0,1,.792.393,4.655,4.655,0,0,1,.955,1.468A11.273,11.273,0,0,1,9.812,4.56Zm-5.956,0H.53a7.314,7.314,0,0,1,4.9-4.32A10.024,10.024,0,0,0,3.856,4.56ZM.231,5.472H3.739a18.285,18.285,0,0,0,0,3.648H.231a7.321,7.321,0,0,1,0-3.648Zm5.318,7.256a11.287,11.287,0,0,1-.769-2.7H9.812a11.42,11.42,0,0,1-.769,2.7A4.655,4.655,0,0,1,8.088,14.2a1.171,1.171,0,0,1-.792.4A1.178,1.178,0,0,1,6.5,14.2a4.655,4.655,0,0,1-.955-1.468Zm-1.693-2.7a10.024,10.024,0,0,0,1.576,4.32,7.314,7.314,0,0,1-4.9-4.32Zm10.205,0a7.316,7.316,0,0,1-4.9,4.32,10.061,10.061,0,0,0,1.576-4.32h3.323Z" transform="translate(11.103 11.103)" fill="#fff"/>
  </g>
</svg>
