<svg xmlns="http://www.w3.org/2000/svg" width="23" height="23" viewBox="0 0 23 23">
  <g id="Groupe_5" data-name="Groupe 5" transform="translate(-8 -7)">
    <circle id="Ellipse_1" data-name="Ellipse 1" cx="11.5" cy="11.5" r="11.5" transform="translate(8 7)"/>
    <path id="youtube" d="M28.183,65.489a1.7,1.7,0,0,0-1.2-1.2A40.185,40.185,0,0,0,21.7,64a40.185,40.185,0,0,0-5.287.285,1.7,1.7,0,0,0-1.2,1.2,19.146,19.146,0,0,0,0,6.557,1.675,1.675,0,0,0,1.2,1.185,40.185,40.185,0,0,0,5.287.285,40.185,40.185,0,0,0,5.287-.285,1.675,1.675,0,0,0,1.2-1.185,19.146,19.146,0,0,0,0-6.557ZM20.315,70.78V66.755l3.537,2.012Z" transform="translate(-2.233 -50.346)" fill="#fff"/>
  </g>
</svg>
